<?xml version="1.0" encoding="utf-8"?>
<!-- Generator: Adobe Illustrator 24.1.0, SVG Export Plug-In . SVG Version: 6.00 Build 0)  -->
<svg version="1.1" xmlns="http://www.w3.org/2000/svg" xmlns:xlink="http://www.w3.org/1999/xlink" x="0px" y="0px"
	 viewBox="0 0 2500 3500" style="enable-background:new 0 0 2500 3500;" xml:space="preserve">
<style type="text/css">
	.st0{fill:#F2F2F2;}
	.st1{fill:#F6F9FA;}
</style>
<g id="_x31_">
	<g id="black">
		<path class="st0" d="M-37.52,259.83"/>
		<path d="M-126.29,1070.81c150.8-110.92,347.87,41.38,734.6,131.51c1062.02,247.5,1540.32-345.99,2078.69-24.15
			c493.93,295.27,580.95,1110.22,422,1212.8c-60.04,38.75-111.59-52.03-422-93.59c-106.88-14.31-239.81-22.17-454.92-68.27
			c-22.32-4.78-25.81-6.01-39.81-8.77c-258.12-50.77-578.48-14.84-578.48-14.84c-446.59,6.71-819.18-8.01-1097.3-25.29
			c-276.61-17.19-379.83-31.95-483.49-104.16C-294.95,1847.57-351.25,1236.29-126.29,1070.81z"/>
		<path d="M2735.58,2568"/>
	</g>
</g>
<g id="Layer_1">
	<g id="grey">
		<path class="st1" d="M0,260.63C220.13,422.3,427.54,482.76,546,507.99c88.53,18.86,418.2,81.79,724.07-19.58
			c67.79-22.47,182.8-69.11,337.93-58.49c74.31,5.09,94.32,18.96,184,27.28c106.3,9.85,167.58-1.36,325-19.75
			c387.37-45.25,438.5-26.66,466,3.76c26.49,29.31,16.51,53.53,20.35,152.63c3.93,101.49,14.14,317.6,118.07,482.31
			c78.12,123.81,192.67,173.87,178.58,195.55c-15.91,24.49-148.43-60.37-325-86.53c-223.77-33.16-318.08,57.62-640.7,127.02
			c-180.48,38.83-323.58,51.72-610.42,55.08c-351.44,4.11-527.16,6.15-698.77-17.31c-377.59-51.62-655.68-86.58-782.3-278.53
			C-293.49,864.82-211.58,543.47,0,260.63z"/>
		<path class="st1" d="M2448.34,1789"/>
		<path class="st1" d="M-401.36,1398.75"/>
		<path class="st1" d="M2313.4,239"/>
	</g>
</g>
</svg>
