<?xml version="1.0" encoding="utf-8"?>
<!-- Generator: Adobe Illustrator 24.1.0, SVG Export Plug-In . SVG Version: 6.00 Build 0)  -->
<svg version="1.1" id="Layer_1" xmlns="http://www.w3.org/2000/svg" xmlns:xlink="http://www.w3.org/1999/xlink" x="0px" y="0px"
	 viewBox="0 0 2500 3500" style="enable-background:new 0 0 2500 3500;" xml:space="preserve">
<style type="text/css">
	.st0{fill:#F2F2F2;}
	.st1{fill:#F6F9FA;}
</style>
<g id="_x31_">
	<g id="black">
		<path class="st0" d="M-37.5,259.8"/>
		<path d="M-126.3,1070.8c150.8-110.9,347.9,41.4,734.6,131.5c1062,247.5,1540.3-346,2078.7-24.2
			c493.9,295.3,580.9,1110.2,422,1212.8c-40.9,26.4-77.9-7.3-195.5-44.7c-38-12.1-69.4-20.4-97.7-26.7
			c-77.1-17.2-128.8-16.9-128.8-22.3c0-9,146.4-19.9,146.3-22.1c-0.1-1.6-80.5,16.7-108.1-19.5c-15.2-20-2.4-40.9-8.9-58.5
			c-26-71.3-341.8-18.6-430.6-5.3c-207.3,31-419.1,5.6-628.6,9.5c-653.1,12.3-923.4-11-1102.6-19
			c-297.7-13.3-409.7-24.9-521.4-106.5C-283.8,1844.9-347,1233.2-126.3,1070.8z"/>
		<path d="M2735.6,2568"/>
	</g>
</g>
<g id="Layer_1_1_">
	<g id="grey">
		<path class="st1" d="M0,260.6C220.1,422.3,427.5,482.8,546,508c88.5,18.9,418.2,81.8,724.1-19.6c67.8-22.5,182.8-69.1,337.9-58.5
			c74.3,5.1,94.3,19,184,27.3c106.3,9.9,167.6-1.4,325-19.8c387.4-45.2,438.5-26.7,466,3.8c26.5,29.3,16.5,53.5,20.4,152.6
			c3.9,101.5,14.1,317.6,118.1,482.3c78.1,123.8,192.7,173.9,178.6,195.6c-15.9,24.5-148.4-60.4-325-86.5
			c-223.8-33.2-318.1,57.6-640.7,127c-180.5,38.8-323.6,51.7-610.4,55.1c-351.4,4.1-527.2,6.2-698.8-17.3
			c-377.6-51.6-655.7-86.6-782.3-278.5C-293.5,864.8-211.6,543.5,0,260.6z"/>
		<path class="st1" d="M2448.3,1789"/>
		<path class="st1" d="M-401.4,1398.8"/>
		<path class="st1" d="M2313.4,239"/>
	</g>
</g>
</svg>
